<?xml version="1.0" encoding="UTF-8"?>
<svg id="Calque_1" xmlns="http://www.w3.org/2000/svg" xmlns:xlink="http://www.w3.org/1999/xlink" version="1.1" viewBox="0 0 1080 1080">
  <!-- Generator: Adobe Illustrator 29.1.0, SVG Export Plug-In . SVG Version: 2.1.0 Build 142)  -->
  <defs>
    <style>
      .st0 {
        fill: none;
      }

      .st1 {
        fill: #9cff00;
      }
    </style>
    <clipPath id="clippath">
      <rect class="st0" width="1080" height="1080"/>
    </clipPath>
  </defs>
  <polygon class="st1" points="717.7 279.9 567.1 452.6 525.9 281 414.1 472.4 504.4 451.1 257.5 743.7 382.4 743.7 443 557.2 521.7 686.6 714.2 470.6 640.6 743.2 800.2 743.7 898.1 279.9 717.7 279.9"/>
  <path class="st1" d="M295.4,558.2l207.3-277.4-168.5-.9-2,6.2h0c-2.1,5.6-4.7,15.7-6,19.9-33.4,108.3-63.5,218-94.8,326.9l-39,131.5c-.3,1-.6,2-.9,3.1l-.2.7-9.4,31.8,210.3-273.5-96.8,31.6h0Z"/>
</svg>